<?xml version="1.0" encoding="UTF-8" standalone="no"?>
<!-- Created with Inkscape (http://www.inkscape.org/) -->

<svg
   width="1366"
   height="768"
   viewBox="0 0 1366 768"
   version="1.1"
   id="svg5"
   inkscape:version="1.2 (dc2aeda, 2022-05-15)"
   sodipodi:docname="icons.svg"
   xmlns:inkscape="http://www.inkscape.org/namespaces/inkscape"
   xmlns:sodipodi="http://sodipodi.sourceforge.net/DTD/sodipodi-0.dtd"
   xmlns="http://www.w3.org/2000/svg"
   xmlns:svg="http://www.w3.org/2000/svg">
  <sodipodi:namedview
     id="namedview7"
     pagecolor="#ffffff"
     bordercolor="#666666"
     borderopacity="1.0"
     inkscape:showpageshadow="2"
     inkscape:pageopacity="0.0"
     inkscape:pagecheckerboard="0"
     inkscape:deskcolor="#d1d1d1"
     inkscape:document-units="px"
     showgrid="false"
     inkscape:zoom="2.4007726"
     inkscape:cx="382.58518"
     inkscape:cy="430.06989"
     inkscape:window-width="1390"
     inkscape:window-height="1027"
     inkscape:window-x="66"
     inkscape:window-y="25"
     inkscape:window-maximized="0"
     inkscape:current-layer="layer1"
     showguides="false" />
  <defs
     id="defs2" />
  <g
     inkscape:label="Layer 1"
     inkscape:groupmode="layer"
     id="layer1">
    <g
       id="g1288"
       transform="translate(-61.355147,-34.172487)"
       inkscape:export-filename="person.png"
       inkscape:export-xdpi="96"
       inkscape:export-ydpi="96">
      <rect
         style="fill:#000000;stroke-width:0.465768"
         id="rect61"
         width="31.41293"
         height="82.223114"
         x="228.56532"
         y="283.35181"
         ry="16.444624" />
      <rect
         style="fill:#000000;stroke-width:0.347609"
         id="rect61-2"
         width="23.782087"
         height="60.491558"
         x="384.69766"
         y="142.07927"
         ry="12.098312"
         transform="matrix(0.81143907,0.58443702,-0.54744547,0.83684136,0,0)" />
      <rect
         style="fill:#000000;stroke-width:0.347609"
         id="rect61-2-3"
         width="23.782087"
         height="60.491558"
         x="-25.568335"
         y="428.15015"
         ry="12.098312"
         transform="matrix(-0.81143907,0.58443702,0.54744547,0.83684136,0,0)" />
      <path
         id="rect61-2-3-9"
         style="fill:#000000;stroke-width:0.347434"
         d="m 250.28708,288.00288 c -2.25219,0.0193 -4.52669,0.7242 -6.53124,2.16797 -5.34545,3.85005 -6.69461,11.46338 -3.02539,17.07226 l 19.86914,30.37501 c 3.66922,5.60887 10.92799,7.02387 16.27344,3.17383 5.34544,-3.85005 6.69461,-11.46535 3.02539,-17.07423 l -19.86914,-30.37304 c -2.29327,-3.50556 -5.98849,-5.37395 -9.7422,-5.3418 z" />
      <path
         id="rect61-2-3-9-9"
         style="fill:#000000;stroke-width:0.347434"
         d="m 237.28141,287.85681 c 2.25219,0.0193 4.52669,0.7242 6.53124,2.16797 5.34545,3.85005 6.69461,11.46338 3.02539,17.07226 l -19.86914,30.37501 c -3.66922,5.60887 -10.92799,7.02387 -16.27344,3.17383 -5.34544,-3.85005 -6.69461,-11.46535 -3.02539,-17.07423 l 19.86914,-30.37304 c 2.29327,-3.50556 5.98849,-5.37395 9.7422,-5.3418 z" />
      <path
         style="fill:#000000;stroke-width:0.686522"
         id="path423"
         sodipodi:type="arc"
         sodipodi:cx="245.00993"
         sodipodi:cy="264.71457"
         sodipodi:rx="18.637239"
         sodipodi:ry="19.733547"
         sodipodi:start="0"
         sodipodi:end="6.2806579"
         sodipodi:open="true"
         sodipodi:arc-type="arc"
         d="m 263.64717,264.71457 a 18.637239,19.733547 0 0 1 -18.62546,19.73354 18.637239,19.733547 0 0 1 -18.649,-19.7086 18.637239,19.733547 0 0 1 18.6019,-19.75845 18.637239,19.733547 0 0 1 18.6725,19.68363" />
    </g>
    <g
       id="g2835"
       inkscape:export-filename="semaphore.png"
       inkscape:export-xdpi="96"
       inkscape:export-ydpi="96">
      <rect
         style="opacity:1;fill:#00aad4;fill-rule:nonzero;stroke-width:1.01802"
         id="rect1491"
         width="64.461739"
         height="132.80669"
         x="145.94827"
         y="406.96326"
         ry="17.04261" />
      <rect
         style="fill:#00aad4;fill-rule:nonzero;stroke-width:0.193543"
         id="rect1491-8"
         width="20.969482"
         height="14.756277"
         x="167.69443"
         y="535.49841"
         ry="1.8936205" />
      <path
         style="opacity:1;fill:#ff2a2a;fill-rule:nonzero"
         id="path1805"
         sodipodi:type="arc"
         sodipodi:cx="178.17917"
         sodipodi:cy="473.81329"
         sodipodi:rx="19.027863"
         sodipodi:ry="19.80451"
         sodipodi:start="0"
         sodipodi:end="6.2806579"
         sodipodi:open="true"
         sodipodi:arc-type="arc"
         d="m 197.20703,473.81329 a 19.027863,19.80451 0 0 1 -19.01584,19.80451 19.027863,19.80451 0 0 1 -19.03987,-19.77948 19.027863,19.80451 0 0 1 18.99178,-19.8295 19.027863,19.80451 0 0 1 19.06387,19.75442" />
      <path
         style="fill:#ffcc00;fill-rule:nonzero"
         id="path1805-0"
         sodipodi:type="arc"
         sodipodi:cx="178.17917"
         sodipodi:cy="514.91724"
         sodipodi:rx="19.027863"
         sodipodi:ry="19.80451"
         sodipodi:start="0"
         sodipodi:end="6.2806579"
         sodipodi:open="true"
         sodipodi:arc-type="arc"
         d="m 197.20703,514.91724 a 19.027863,19.80451 0 0 1 -19.01584,19.8045 19.027863,19.80451 0 0 1 -19.03987,-19.77948 19.027863,19.80451 0 0 1 18.99178,-19.8295 19.027863,19.80451 0 0 1 19.06387,19.75442" />
      <path
         style="fill:#008000;fill-rule:nonzero"
         id="path1805-3"
         sodipodi:type="arc"
         sodipodi:cx="178.17917"
         sodipodi:cy="432.20428"
         sodipodi:rx="19.027863"
         sodipodi:ry="19.80451"
         sodipodi:start="0"
         sodipodi:end="6.2806579"
         sodipodi:open="true"
         sodipodi:arc-type="arc"
         d="m 197.20703,432.20428 a 19.027863,19.80451 0 0 1 -19.01584,19.80451 19.027863,19.80451 0 0 1 -19.03987,-19.77948 19.027863,19.80451 0 0 1 18.99178,-19.8295 19.027863,19.80451 0 0 1 19.06387,19.75442" />
      <rect
         style="fill:#00aad4;fill-rule:nonzero;stroke-width:1.01802"
         id="use2793"
         width="64.461739"
         height="132.80669"
         x="145.94827"
         y="406.96326"
         ry="17.04261" />
      <rect
         style="fill:#00aad4;fill-rule:nonzero;stroke-width:0.193543"
         id="use2795"
         width="20.969482"
         height="14.756277"
         x="167.69443"
         y="535.49841"
         ry="1.8936205" />
      <path
         style="fill:#ff2a2a;fill-rule:nonzero"
         id="use2797"
         sodipodi:type="arc"
         sodipodi:cx="178.17917"
         sodipodi:cy="473.81329"
         sodipodi:rx="19.027863"
         sodipodi:ry="19.80451"
         sodipodi:start="0"
         sodipodi:end="6.2806579"
         sodipodi:open="true"
         sodipodi:arc-type="arc"
         d="m 197.20703,473.81329 a 19.027863,19.80451 0 0 1 -19.01584,19.80451 19.027863,19.80451 0 0 1 -19.03987,-19.77948 19.027863,19.80451 0 0 1 18.99178,-19.8295 19.027863,19.80451 0 0 1 19.06387,19.75442" />
      <path
         style="fill:#ffcc00;fill-rule:nonzero"
         id="use2799"
         sodipodi:type="arc"
         sodipodi:cx="178.17917"
         sodipodi:cy="514.91724"
         sodipodi:rx="19.027863"
         sodipodi:ry="19.80451"
         sodipodi:start="0"
         sodipodi:end="6.2806579"
         sodipodi:open="true"
         sodipodi:arc-type="arc"
         d="m 197.20703,514.91724 a 19.027863,19.80451 0 0 1 -19.01584,19.8045 19.027863,19.80451 0 0 1 -19.03987,-19.77948 19.027863,19.80451 0 0 1 18.99178,-19.8295 19.027863,19.80451 0 0 1 19.06387,19.75442" />
      <path
         style="fill:#008000;fill-rule:nonzero"
         id="use2801"
         sodipodi:type="arc"
         sodipodi:cx="178.17917"
         sodipodi:cy="432.20428"
         sodipodi:rx="19.027863"
         sodipodi:ry="19.80451"
         sodipodi:start="0"
         sodipodi:end="6.2806579"
         sodipodi:open="true"
         sodipodi:arc-type="arc"
         d="m 197.20703,432.20428 a 19.027863,19.80451 0 0 1 -19.01584,19.80451 19.027863,19.80451 0 0 1 -19.03987,-19.77948 19.027863,19.80451 0 0 1 18.99178,-19.8295 19.027863,19.80451 0 0 1 19.06387,19.75442" />
    </g>
    <g
       id="g6823"
       inkscape:export-filename="car.png"
       inkscape:export-xdpi="96"
       inkscape:export-ydpi="96">
      <path
         id="rect4444"
         style="opacity:1;fill:#ff9955"
         d="m 125.37017,631.70892 28.35083,-8.32994 14.11732,-29.67006 h 107.40445 l 16,34.32729 v 38.32728 h -165.8726 z"
         sodipodi:nodetypes="cccccccc" />
      <path
         style="opacity:1;fill:#501616;fill-rule:nonzero;stroke-width:0.981147"
         id="path4496"
         sodipodi:type="arc"
         sodipodi:cx="170.53252"
         sodipodi:cy="660.92694"
         sodipodi:rx="19.416187"
         sodipodi:ry="19.416187"
         sodipodi:start="0"
         sodipodi:end="6.2806579"
         sodipodi:open="true"
         sodipodi:arc-type="arc"
         d="m 189.9487,660.92694 a 19.416187,19.416187 0 0 1 -19.40392,19.41618 19.416187,19.416187 0 0 1 -19.42844,-19.39164 19.416187,19.416187 0 0 1 19.37937,-19.44069 19.416187,19.416187 0 0 1 19.45293,19.36708" />
      <path
         style="fill:#501616;fill-rule:nonzero;stroke-width:0.981147"
         id="path4496-0"
         sodipodi:type="arc"
         sodipodi:cx="258.6236"
         sodipodi:cy="660.92694"
         sodipodi:rx="19.416187"
         sodipodi:ry="19.416187"
         sodipodi:start="0"
         sodipodi:end="6.2806579"
         sodipodi:open="true"
         sodipodi:arc-type="arc"
         d="m 278.03978,660.92694 a 19.416187,19.416187 0 0 1 -19.40392,19.41618 19.416187,19.416187 0 0 1 -19.42844,-19.39164 19.416187,19.416187 0 0 1 19.37937,-19.44069 19.416187,19.416187 0 0 1 19.45293,19.36708" />
    </g>
    <g
       id="g462"
       inkscape:export-filename="truck.png"
       inkscape:export-xdpi="96"
       inkscape:export-ydpi="96">
      <rect
         style="fill:#002255;stroke-width:0.590067"
         id="rect1333-6-1"
         width="50.326752"
         height="4.798985"
         x="425.82123"
         y="539.75262" />
      <rect
         style="fill:#162d50;stroke-width:1.02114"
         id="rect1357"
         width="120.31239"
         height="21.595436"
         x="382.1785"
         y="544.15167" />
      <rect
         style="fill:#b3b3b3;stroke-width:0.921243"
         id="rect1333"
         width="30.667868"
         height="19.195946"
         x="385.32391"
         y="550.15039" />
      <path
         style="fill:#1a1a1a;stroke-width:1.02114"
         id="path1175-2"
         sodipodi:type="arc"
         sodipodi:cx="437.22339"
         sodipodi:cy="565.74707"
         sodipodi:rx="14.547578"
         sodipodi:ry="14.796874"
         sodipodi:start="0"
         sodipodi:end="6.2806579"
         sodipodi:open="true"
         sodipodi:arc-type="arc"
         d="m 451.77097,565.74707 a 14.547578,14.796874 0 0 1 -14.53839,14.79687 14.547578,14.796874 0 0 1 -14.55676,-14.77817 14.547578,14.796874 0 0 1 14.51999,-14.81555 14.547578,14.796874 0 0 1 14.57511,14.75945" />
      <path
         style="fill:#1a1a1a;stroke-width:1.02114"
         id="path1175-2-7"
         sodipodi:type="arc"
         sodipodi:cx="471.03668"
         sodipodi:cy="565.74707"
         sodipodi:rx="14.547578"
         sodipodi:ry="14.796874"
         sodipodi:start="0"
         sodipodi:end="6.2806579"
         sodipodi:open="true"
         sodipodi:arc-type="arc"
         d="m 485.58426,565.74707 a 14.547578,14.796874 0 0 1 -14.53839,14.79687 14.547578,14.796874 0 0 1 -14.55675,-14.77817 14.547578,14.796874 0 0 1 14.51999,-14.81555 14.547578,14.796874 0 0 1 14.5751,14.75945" />
      <rect
         style="fill:#aa0000;stroke-width:0.844466"
         id="rect408"
         width="64.481155"
         height="71.984787"
         x="318.48367"
         y="493.76233" />
      <rect
         style="fill:#e6e6e6;stroke-width:0.653847"
         id="rect1121"
         width="64.481163"
         height="8.7981415"
         x="318.48367"
         y="525.86462" />
      <rect
         style="fill:#b3b3b3;stroke-width:0.499347"
         id="rect1333-6"
         width="8.6499119"
         height="19.995775"
         x="313.76556"
         y="541.7522" />
      <rect
         style="fill:#b3b3b3;stroke-width:0.33666"
         id="rect1333-6-0-3"
         width="3.9317791"
         height="19.995775"
         x="386.11029"
         y="476.14285" />
      <rect
         style="fill:#b3b3b3;stroke-width:0.827936"
         id="rect1333-6-0-3-9"
         width="11.008979"
         height="43.190876"
         x="382.57169"
         y="493.76233" />
      <rect
         style="fill:#000000;stroke-width:0.679309"
         id="rect2381"
         width="20.445244"
         height="22.395267"
         x="318.48367"
         y="499.73785" />
      <path
         style="fill:#1a1a1a;stroke-width:1.02114"
         id="path1175"
         sodipodi:type="arc"
         sodipodi:cx="351.23569"
         sodipodi:cy="565.74707"
         sodipodi:rx="14.547578"
         sodipodi:ry="14.796874"
         sodipodi:start="0"
         sodipodi:end="6.2806579"
         sodipodi:open="true"
         sodipodi:arc-type="arc"
         d="m 365.78327,565.74707 a 14.547578,14.796874 0 0 1 -14.53839,14.79687 14.547578,14.796874 0 0 1 -14.55676,-14.77817 14.547578,14.796874 0 0 1 14.51999,-14.81555 14.547578,14.796874 0 0 1 14.57511,14.75945" />
    </g>
  </g>
</svg>
